<?xml version="1.0" encoding="utf-8"?>
<!-- Generator: Adobe Illustrator 25.2.1, SVG Export Plug-In . SVG Version: 6.00 Build 0)  -->
<svg version="1.1" id="Layer_1" xmlns="http://www.w3.org/2000/svg" xmlns:xlink="http://www.w3.org/1999/xlink" x="0px" y="0px"
	 viewBox="0 0 200 200" style="enable-background:new 0 0 200 200;" xml:space="preserve">
<style type="text/css">
	.st0{fill:#BBBBBB;}
</style>
<circle class="st0" cx="98.6" cy="99.2" r="85.1"/>
<image style="overflow:visible;" width="428" height="642" xlink:href="C4B39633.jpg"  transform="matrix(1 0 0 1 396.2396 -324.9795)">
</image>
<g>
	<path d="M647.5,438.4c0,0.1,0,0.3-0.1,0.4c-0.1,0.1-0.2,0.2-0.4,0.3c-0.2,0.1-0.5,0.1-0.8,0.2c-0.3,0-0.7,0.1-1.2,0.1
		c-0.5,0-0.9,0-1.3-0.1c-0.3,0-0.6-0.1-0.8-0.2c-0.2-0.1-0.3-0.2-0.4-0.3c-0.1-0.1-0.1-0.2-0.1-0.4V428h-9.6v10.4
		c0,0.1,0,0.3-0.1,0.4c-0.1,0.1-0.2,0.2-0.4,0.3c-0.2,0.1-0.5,0.1-0.8,0.2c-0.3,0-0.8,0.1-1.3,0.1c-0.5,0-0.9,0-1.3-0.1
		c-0.3,0-0.6-0.1-0.8-0.2c-0.2-0.1-0.3-0.2-0.4-0.3s-0.1-0.2-0.1-0.4v-24.2c0-0.1,0-0.3,0.1-0.4c0.1-0.1,0.2-0.2,0.4-0.3
		c0.2-0.1,0.5-0.1,0.8-0.2s0.8-0.1,1.3-0.1c0.5,0,0.9,0,1.3,0.1c0.3,0,0.6,0.1,0.8,0.2c0.2,0.1,0.3,0.2,0.4,0.3
		c0.1,0.1,0.1,0.2,0.1,0.4v9.4h9.6v-9.4c0-0.1,0-0.3,0.1-0.4c0.1-0.1,0.2-0.2,0.4-0.3c0.2-0.1,0.5-0.1,0.8-0.2
		c0.3,0,0.8-0.1,1.3-0.1c0.5,0,0.9,0,1.2,0.1s0.6,0.1,0.8,0.2c0.2,0.1,0.3,0.2,0.4,0.3c0.1,0.1,0.1,0.2,0.1,0.4V438.4z"/>
	<path d="M670.2,415.6c0,0.4,0,0.7,0,1c0,0.3-0.1,0.5-0.1,0.7s-0.1,0.3-0.2,0.4c-0.1,0.1-0.2,0.1-0.3,0.1H663v20.7
		c0,0.1,0,0.3-0.1,0.4c-0.1,0.1-0.2,0.2-0.4,0.3c-0.2,0.1-0.5,0.1-0.8,0.2c-0.3,0-0.8,0.1-1.3,0.1s-0.9,0-1.3-0.1
		c-0.3,0-0.6-0.1-0.8-0.2c-0.2-0.1-0.3-0.2-0.4-0.3s-0.1-0.2-0.1-0.4v-20.7h-6.4c-0.1,0-0.2,0-0.3-0.1c-0.1-0.1-0.2-0.2-0.2-0.4
		c-0.1-0.2-0.1-0.4-0.1-0.7c0-0.3,0-0.6,0-1c0-0.4,0-0.7,0-1c0-0.3,0.1-0.5,0.1-0.7c0.1-0.2,0.1-0.3,0.2-0.4
		c0.1-0.1,0.2-0.1,0.3-0.1h18.1c0.1,0,0.2,0,0.3,0.1c0.1,0.1,0.2,0.2,0.2,0.4c0.1,0.2,0.1,0.4,0.1,0.7
		C670.1,414.8,670.2,415.2,670.2,415.6z"/>
	<path d="M703.1,438.4c0,0.1,0,0.3-0.1,0.4c-0.1,0.1-0.2,0.2-0.4,0.3c-0.2,0.1-0.4,0.1-0.8,0.2c-0.3,0-0.7,0.1-1.2,0.1
		c-0.5,0-0.9,0-1.2-0.1c-0.3,0-0.6-0.1-0.8-0.2c-0.2-0.1-0.3-0.2-0.4-0.3s-0.1-0.2-0.1-0.4v-20.9h0l-7.4,20.8
		c-0.1,0.2-0.1,0.3-0.3,0.4s-0.3,0.2-0.5,0.3c-0.2,0.1-0.5,0.1-0.8,0.1c-0.3,0-0.7,0-1.1,0s-0.8,0-1.1,0c-0.3,0-0.6-0.1-0.8-0.2
		s-0.4-0.2-0.5-0.3s-0.2-0.2-0.2-0.4l-7.2-20.8h0v20.9c0,0.1,0,0.3-0.1,0.4c-0.1,0.1-0.2,0.2-0.4,0.3c-0.2,0.1-0.5,0.1-0.8,0.2
		c-0.3,0-0.7,0.1-1.2,0.1c-0.5,0-0.9,0-1.2-0.1c-0.3,0-0.6-0.1-0.8-0.2c-0.2-0.1-0.3-0.2-0.4-0.3c-0.1-0.1-0.1-0.2-0.1-0.4v-22.8
		c0-0.7,0.2-1.2,0.5-1.5c0.4-0.4,0.8-0.5,1.4-0.5h3.4c0.6,0,1.1,0,1.6,0.1c0.4,0.1,0.8,0.3,1.1,0.5c0.3,0.2,0.6,0.5,0.8,0.9
		s0.4,0.8,0.6,1.4l5.5,15.3h0.1l5.7-15.2c0.2-0.6,0.4-1,0.6-1.4c0.2-0.4,0.4-0.7,0.7-0.9c0.3-0.2,0.6-0.4,1-0.5
		c0.4-0.1,0.8-0.1,1.3-0.1h3.5c0.4,0,0.7,0,0.9,0.1c0.3,0.1,0.5,0.2,0.6,0.4s0.3,0.4,0.4,0.7c0.1,0.3,0.1,0.6,0.1,0.9V438.4z"/>
	<path d="M722.7,436.9c0,0.4,0,0.7,0,1c0,0.3-0.1,0.5-0.1,0.7c-0.1,0.2-0.1,0.3-0.2,0.4c-0.1,0.1-0.2,0.1-0.3,0.1h-11.7
		c-0.4,0-0.8-0.1-1.1-0.4c-0.3-0.3-0.4-0.7-0.4-1.3v-23.3c0-0.1,0-0.3,0.1-0.4c0.1-0.1,0.2-0.2,0.4-0.3c0.2-0.1,0.5-0.1,0.8-0.2
		s0.8-0.1,1.3-0.1c0.5,0,0.9,0,1.3,0.1s0.6,0.1,0.8,0.2c0.2,0.1,0.3,0.2,0.4,0.3c0.1,0.1,0.1,0.2,0.1,0.4v20.6h8.1
		c0.1,0,0.2,0,0.3,0.1c0.1,0.1,0.2,0.2,0.2,0.4c0.1,0.2,0.1,0.4,0.1,0.7C722.7,436.2,722.7,436.5,722.7,436.9z"/>
</g>
<text transform="matrix(1 0 0 1 780.1174 473.0341)" style="font-family:'Calibri-Bold'; font-size:40.5719px;">CSS</text>
<g>
	<path d="M90.7,99.1c0,1.2-0.2,2.1-0.6,2.5c-0.4,0.4-1.2,0.6-2.3,0.6s-1.9-0.2-2.3-0.6c-0.4-0.4-0.6-1.2-0.6-2.4
		c0-1.2,0.2-2.1,0.6-2.5c0.4-0.4,1.2-0.6,2.3-0.6c1.1,0,1.9,0.2,2.3,0.6C90.5,97.1,90.7,97.9,90.7,99.1z"/>
	<path d="M101.5,99.1c0,1.2-0.2,2.1-0.6,2.5c-0.4,0.4-1.2,0.6-2.3,0.6s-1.9-0.2-2.3-0.6c-0.4-0.4-0.6-1.2-0.6-2.4
		c0-1.2,0.2-2.1,0.6-2.5c0.4-0.4,1.2-0.6,2.3-0.6c1.1,0,1.9,0.2,2.3,0.6C101.3,97.1,101.5,97.9,101.5,99.1z"/>
	<path d="M112.4,99.1c0,1.2-0.2,2.1-0.6,2.5c-0.4,0.4-1.2,0.6-2.3,0.6s-1.9-0.2-2.3-0.6c-0.4-0.4-0.6-1.2-0.6-2.4
		c0-1.2,0.2-2.1,0.6-2.5c0.4-0.4,1.2-0.6,2.3-0.6c1.1,0,1.9,0.2,2.3,0.6C112.2,97.1,112.4,97.9,112.4,99.1z"/>
</g>
<text transform="matrix(1 0 0 1 747.0088 419.8687)" style="font-family:'Calibri-Bold'; font-size:12px;">Lorem ipsum</text>
</svg>
